<svg width="32" height="32" viewBox="0 0 32 32" fill="none" xmlns="http://www.w3.org/2000/svg">
  <!-- 背景圓形 -->
  <circle cx="16" cy="16" r="15" fill="url(#gradient)" stroke="#2563eb" stroke-width="2"/>
  
  <!-- 主要圖標 - 結合人才和AI元素 -->
  <!-- 人形圖標 -->
  <path d="M12 9c0-2.2 1.8-4 4-4s4 1.8 4 4-1.8 4-4 4-4-1.8-4-4z" fill="white"/>
  <path d="M8 22c0-4.4 3.6-8 8-8s8 3.6 8 8v2H8v-2z" fill="white"/>
  
  <!-- AI大腦神經元圖案 -->
  <g opacity="0.8">
    <circle cx="10" cy="12" r="1.5" fill="#60a5fa"/>
    <circle cx="22" cy="12" r="1.5" fill="#60a5fa"/>
    <circle cx="10" cy="20" r="1.5" fill="#60a5fa"/>
    <circle cx="22" cy="20" r="1.5" fill="#60a5fa"/>
    
    <!-- 連接線 -->
    <path d="M10 12 L16 16 L22 12" stroke="#60a5fa" stroke-width="1.5" fill="none"/>
    <path d="M10 20 L16 16 L22 20" stroke="#60a5fa" stroke-width="1.5" fill="none"/>
  </g>
  
  <!-- 知識文件圖標 -->
  <rect x="6" y="26" width="4" height="3" rx="0.5" fill="#f59e0b" opacity="0.7"/>
  <rect x="11" y="26" width="4" height="3" rx="0.5" fill="#f59e0b" opacity="0.7"/>
  <rect x="16" y="26" width="4" height="3" rx="0.5" fill="#f59e0b" opacity="0.7"/>
  <rect x="21" y="26" width="4" height="3" rx="0.5" fill="#f59e0b" opacity="0.7"/>
  
  <!-- 漸變定義 -->
  <defs>
    <linearGradient id="gradient" x1="0%" y1="0%" x2="100%" y2="100%">
      <stop offset="0%" style="stop-color:#3b82f6;stop-opacity:1" />
      <stop offset="100%" style="stop-color:#1d4ed8;stop-opacity:1" />
    </linearGradient>
  </defs>
</svg>